<svg width="106" height="17" viewBox="0 0 106 17" fill="none" xmlns="http://www.w3.org/2000/svg">
<g clipPath="url(#clip0_306_3312)">
<path d="M22.332 0.323242H2.33203C1.22746 0.323242 0.332031 1.21867 0.332031 2.32324V14.3232C0.332031 15.4278 1.22746 16.3232 2.33203 16.3232H22.332C23.4366 16.3232 24.332 15.4278 24.332 14.3232V2.32324C24.332 1.21867 23.4366 0.323242 22.332 0.323242Z" fill="#252525"/>
<path d="M9.33203 13.3232C12.0935 13.3232 14.332 11.0847 14.332 8.32324C14.332 5.56182 12.0935 3.32324 9.33203 3.32324C6.57061 3.32324 4.33203 5.56182 4.33203 8.32324C4.33203 11.0847 6.57061 13.3232 9.33203 13.3232Z" fill="#EB001B"/>
<path d="M15.332 13.3232C18.0935 13.3232 20.332 11.0847 20.332 8.32324C20.332 5.56182 18.0935 3.32324 15.332 3.32324C12.5706 3.32324 10.332 5.56182 10.332 8.32324C10.332 11.0847 12.5706 13.3232 15.332 13.3232Z" fill="#F79E1B"/>
<path fillRule="evenodd" clipRule="evenodd" d="M12.332 4.32324C13.5465 5.23545 14.332 6.68779 14.332 8.32361C14.332 9.95943 13.5465 11.4118 12.332 12.324C11.1176 11.4118 10.332 9.95943 10.332 8.32361C10.332 6.68779 11.1176 5.23545 12.332 4.32324Z" fill="#FF5F00"/>
</g>
<g clipPath="url(#clip1_306_3312)">
<path d="M49.082 0.573242H29.582C28.4775 0.573242 27.582 1.46867 27.582 2.57324V14.0732C27.582 15.1778 28.4775 16.0732 29.582 16.0732H49.082C50.1866 16.0732 51.082 15.1778 51.082 14.0732V2.57324C51.082 1.46867 50.1866 0.573242 49.082 0.573242Z" fill="white" stroke="black" strokeOpacity="0.2" strokeWidth="0.5"/>
<path d="M30.1198 6.23768C29.5966 5.95075 28.9996 5.71998 28.332 5.55984L28.36 5.43512H31.097C31.468 5.44813 31.769 5.55975 31.867 5.95395L32.4618 8.78983L32.644 9.64397L34.31 5.43512H36.1088L33.4349 11.6008H31.636L30.1198 6.23768ZM37.432 11.6073H35.7309L36.7949 5.43512H38.4959L37.432 11.6073ZM43.5988 5.58602L43.3675 6.91883L43.2136 6.85329C42.9058 6.72849 42.4994 6.60378 41.9464 6.61696C41.2748 6.61696 40.9736 6.88601 40.9666 7.1487C40.9666 7.43766 41.331 7.62808 41.9259 7.91049C42.9061 8.35043 43.3607 8.88881 43.3539 9.59143C43.3401 10.8719 42.178 11.6993 40.3931 11.6993C39.6299 11.6927 38.8948 11.5413 38.4958 11.3708L38.7339 9.98529L38.9579 10.0839C39.5109 10.314 39.8748 10.4122 40.554 10.4122C41.0438 10.4122 41.5689 10.2216 41.5756 9.80813C41.5756 9.53889 41.3519 9.34175 40.6937 9.0397C40.0498 8.74411 39.1889 8.25173 39.2028 7.36522C39.2101 6.16367 40.3931 5.32324 42.073 5.32324C42.7311 5.32324 43.2633 5.46113 43.5988 5.58602ZM45.8598 9.42073H47.2738C47.2038 9.11214 46.8817 7.63472 46.8817 7.63472L46.7628 7.10288C46.6788 7.33267 46.5319 7.70698 46.539 7.6938C46.539 7.6938 45.9999 9.06614 45.8598 9.42073ZM47.9596 5.43512L49.332 11.6072H47.7569C47.7569 11.6072 47.6028 10.8981 47.554 10.6814H45.3698C45.3067 10.8454 45.0128 11.6072 45.0128 11.6072H43.2278L45.7547 5.94723C45.9297 5.54666 46.238 5.43512 46.6438 5.43512H47.9596Z" fill="#1434CB"/>
</g>
<g clipPath="url(#clip2_306_3312)">
<path d="M76.332 0.323242H56.332C55.2275 0.323242 54.332 1.21867 54.332 2.32324V14.3232C54.332 15.4278 55.2275 16.3232 56.332 16.3232H76.332C77.4366 16.3232 78.332 15.4278 78.332 14.3232V2.32324C78.332 1.21867 77.4366 0.323242 76.332 0.323242Z" fill="#016FD0"/>
<path fillRule="evenodd" clipRule="evenodd" d="M68.0957 13.717V8.01562L78.2432 8.02473V9.59963L77.0704 10.853L78.2432 12.1179V13.7262H76.3706L75.3754 12.628L74.3873 13.7304L68.0957 13.717Z" fill="#FFFFFE"/>
<path fillRule="evenodd" clipRule="evenodd" d="M68.7734 13.0924V8.64355H72.5457V9.66844H69.9948V10.3641H72.4849V11.372H69.9948V12.0553H72.5457V13.0924H68.7734Z" fill="#016FD0"/>
<path fillRule="evenodd" clipRule="evenodd" d="M72.5274 13.0924L74.6148 10.8653L72.5273 8.64355H74.143L75.4185 10.0536L76.6976 8.64355H78.2438V8.67856L76.2009 10.8653L78.2438 13.0292V13.0924H76.682L75.3839 11.6682L74.0991 13.0924H72.5274Z" fill="#016FD0"/>
<path fillRule="evenodd" clipRule="evenodd" d="M68.5689 2.95508H71.015L71.8741 4.90593V2.95508H74.8939L75.4147 4.41665L75.9372 2.95508H78.2432V8.65647H66.0566L68.5689 2.95508Z" fill="#FFFFFE"/>
<path fillRule="evenodd" clipRule="evenodd" d="M69.0326 3.5752L67.0586 8.02037H68.4125L68.7849 7.1302H70.8029L71.175 8.02037H72.5626L70.5968 3.5752H69.0326ZM69.2022 6.13263L69.7942 4.71756L70.3858 6.13263H69.2022Z" fill="#016FD0"/>
<path fillRule="evenodd" clipRule="evenodd" d="M72.5449 8.0193V3.57422L74.448 3.58076L75.4273 6.31349L76.4129 3.57422H78.2445V8.0193L77.0659 8.02973V4.97638L75.9534 8.0193H74.8776L73.7419 4.96595V8.0193H72.5449Z" fill="#016FD0"/>
</g>
<g clipPath="url(#clip3_306_3312)">
<path d="M103.329 16.0732L103.331 16.0732C104.287 16.0814 105.07 15.3005 105.082 14.3274L105.082 2.32954C105.078 1.85893 104.891 1.40941 104.562 1.08004C104.233 0.751511 103.791 0.569391 103.329 0.573313L83.3327 0.573304C82.8731 0.569391 82.4306 0.751511 82.1023 1.08004C81.7732 1.40941 81.5859 1.85893 81.582 2.32751L81.582 14.3169C81.5859 14.7875 81.7732 15.2371 82.1023 15.5664C82.4306 15.895 82.8731 16.0771 83.3348 16.0732H103.329ZM103.328 16.5732C103.328 16.5732 103.328 16.5732 103.327 16.5732L103.329 16.5732H103.328Z" fill="white" stroke="black" strokeOpacity="0.2" strokeWidth="0.5"/>
<path d="M93.9453 16.3234H103.33C103.857 16.3278 104.364 16.1228 104.739 15.7534C105.115 15.384 105.329 14.8805 105.333 14.3537V11.9951C101.789 14.0294 97.9457 15.4902 93.9453 16.3234Z" fill="#F27712"/>
<path d="M104.505 9.62016H103.653L102.693 8.35396H102.602V9.62016H101.906V6.47534H102.933C103.735 6.47534 104.199 6.80637 104.199 7.40223C104.199 7.89051 103.909 8.20499 103.388 8.3043L104.505 9.62016ZM103.479 7.42706C103.479 7.12085 103.247 6.96361 102.817 6.96361H102.602V7.91534H102.8C103.247 7.91534 103.479 7.74982 103.479 7.42706ZM99.4733 6.47534H101.443V7.00499H100.168V7.70844H101.393V8.24637H100.168V9.09878H101.443V9.62844H99.4733V6.47534ZM97.2388 9.70292L95.7326 6.46706H96.4939L97.4457 8.58568L98.4057 6.46706H99.1505L97.6277 9.70292H97.2553H97.2388ZM90.9408 9.69465C89.8815 9.69465 89.0539 8.97465 89.0539 8.03947C89.0539 7.12913 89.8981 6.39258 90.9574 6.39258C91.2553 6.39258 91.5036 6.45051 91.8098 6.58292V7.3112C91.5779 7.08338 91.2659 6.9556 90.9408 6.95534C90.2788 6.95534 89.7739 7.43534 89.7739 8.03947C89.7739 8.67672 90.2705 9.13189 90.9739 9.13189C91.2884 9.13189 91.5284 9.03258 91.8098 8.7843V9.51258C91.4953 9.64499 91.2305 9.69465 90.9408 9.69465ZM88.8388 8.66016C88.8388 9.27258 88.3339 9.69465 87.6057 9.69465C87.076 9.69465 86.6953 9.51258 86.3726 9.09878L86.8277 8.70982C86.985 8.9912 87.2498 9.13189 87.5808 9.13189C87.8953 9.13189 88.1188 8.94154 88.1188 8.69327C88.1188 8.55258 88.0526 8.44499 87.9119 8.36223C87.7576 8.28738 87.597 8.22644 87.4319 8.18016C86.7781 7.97327 86.5546 7.74982 86.5546 7.3112C86.5546 6.7981 87.0346 6.40913 87.6636 6.40913C88.0608 6.40913 88.4167 6.53327 88.7146 6.76499L88.3505 7.17878C88.2062 7.02056 88.0019 6.93044 87.7877 6.93051C87.4898 6.93051 87.2746 7.07947 87.2746 7.2781C87.2746 7.44361 87.3988 7.53465 87.8126 7.67534C88.6071 7.92361 88.8388 8.15534 88.8388 8.66844V8.66016ZM85.4208 6.47534H86.116V9.62844H85.4208V6.47534ZM83.1864 9.62844H82.1602V6.47534H83.1864C84.3119 6.47534 85.0898 7.12085 85.0898 8.04775C85.0898 8.51947 84.8581 8.96637 84.4526 9.2643C84.105 9.51258 83.716 9.62844 83.1781 9.62844H83.1864ZM83.9974 7.26154C83.7657 7.07947 83.5008 7.01327 83.0457 7.01327H82.8553V9.09878H83.0457C83.4926 9.09878 83.7739 9.01603 83.9974 8.85051C84.2374 8.65189 84.3781 8.35396 84.3781 8.04775C84.3781 7.74154 84.2374 7.45189 83.9974 7.26154Z" fill="black"/>
<path d="M93.745 6.39258C92.8347 6.39258 92.0898 7.12085 92.0898 8.02292C92.0898 8.98292 92.8016 9.70292 93.745 9.70292C94.6719 9.70292 95.4002 8.97465 95.4002 8.04775C95.4002 7.12085 94.6802 6.39258 93.745 6.39258Z" fill="#F27712"/>
</g>
<defs>
<clipPath id="clip0_306_3312">
<rect width="24" height="16" fill="white" transform="translate(0.332031 0.323242)"/>
</clipPath>
<clipPath id="clip1_306_3312">
<rect width="24" height="16" fill="white" transform="translate(27.332 0.323242)"/>
</clipPath>
<clipPath id="clip2_306_3312">
<rect width="24" height="16" fill="white" transform="translate(54.332 0.323242)"/>
</clipPath>
<clipPath id="clip3_306_3312">
<rect width="24" height="16" fill="white" transform="translate(81.332 0.323242)"/>
</clipPath>
</defs>
</svg>
