<svg width="30" height="30" viewBox="0 0 30 30" fill="none" xmlns="http://www.w3.org/2000/svg">
<path d="M23.2311 21.6447L23.7539 25.8809C23.888 26.9935 22.6949 27.771 21.7431 27.1946L16.1262 23.8566C15.5095 23.8566 14.9063 23.8164 14.3164 23.736C15.3084 22.5697 15.8983 21.0951 15.8983 19.4998C15.8983 15.6926 12.6005 12.6094 8.52522 12.6094C6.97018 12.6094 5.53579 13.0518 4.3427 13.8293C4.30248 13.4941 4.28906 13.159 4.28906 12.8104C4.28906 6.71092 9.58426 1.76428 16.1262 1.76428C22.6681 1.76428 27.9633 6.71092 27.9633 12.8104C27.9633 16.43 26.0999 19.6339 23.2311 21.6447Z" stroke="#931D72" strokeWidth="2.2" strokeLinecap="round" strokeLinejoin="round"/>
<path d="M15.8985 19.4999C15.8985 21.0952 15.3086 22.5698 14.3166 23.7361C12.9895 25.3448 10.8848 26.3769 8.5254 26.3769L5.02655 28.4548C4.4367 28.8167 3.68599 28.3208 3.76642 27.6371L4.10156 24.9962C2.30522 23.7495 1.15234 21.752 1.15234 19.4999C1.15234 17.1405 2.41247 15.0627 4.34287 13.8294C5.53597 13.0518 6.97036 12.6095 8.5254 12.6095C12.6007 12.6095 15.8985 15.6927 15.8985 19.4999Z" stroke="#931D72" strokeWidth="2.2" strokeLinecap="round" strokeLinejoin="round"/>
</svg>
