<svg width="25" height="25" viewBox="0 0 25 25" fill="none" xmlns="http://www.w3.org/2000/svg">
<g clipPath="url(#clip0_306_3317)">
<path opacity="0.2" fillRule="evenodd" clipRule="evenodd" d="M15.7589 4.32324C15.0364 4.83037 14.4469 5.50413 14.0401 6.28745C13.6333 7.07077 13.4212 7.94059 13.4219 8.82324C13.4219 10.1532 13.8939 11.3732 14.6789 12.3232H4.42188C4.15666 12.3232 3.9023 12.4286 3.71477 12.6161C3.52723 12.8037 3.42188 13.058 3.42188 13.3232V14.3232C3.42188 14.5885 3.52723 14.8428 3.71477 15.0303C3.9023 15.2179 4.15666 15.3232 4.42188 15.3232H20.4219C20.6871 15.3232 20.9414 15.2179 21.129 15.0303C21.3165 14.8428 21.4219 14.5885 21.4219 14.3232V13.7232C22.2195 13.315 22.9059 12.7188 23.4219 11.9862V18.3232C23.4219 18.8537 23.2112 19.3624 22.8361 19.7375C22.461 20.1125 21.9523 20.3232 21.4219 20.3232H3.42188C2.89144 20.3232 2.38273 20.1125 2.00766 19.7375C1.63259 19.3624 1.42188 18.8537 1.42188 18.3232V6.32324C1.42188 5.79281 1.63259 5.2841 2.00766 4.90903C2.38273 4.53396 2.89144 4.32324 3.42188 4.32324H15.7589ZM22.4659 4.61624C22.7049 4.81824 22.9259 5.04024 23.1279 5.27924C22.9625 5.00918 22.7357 4.78201 22.4659 4.61624Z" fill="#77787D"/>
<path opacity="0.4" fillRule="evenodd" clipRule="evenodd" d="M14.0219 6.32324C13.5486 7.24817 13.3481 8.28866 13.4439 9.32324H1.42188V6.32324H14.0219Z" fill="#77787D"/>
<path fillRule="evenodd" clipRule="evenodd" d="M18.9219 14.3232C17.4632 14.3232 16.0642 13.7438 15.0328 12.7123C14.0013 11.6809 13.4219 10.2819 13.4219 8.82324C13.4219 7.36455 14.0013 5.96561 15.0328 4.93415C16.0642 3.9027 17.4632 3.32324 18.9219 3.32324C20.3806 3.32324 21.7795 3.9027 22.811 4.93415C23.8424 5.96561 24.4219 7.36455 24.4219 8.82324C24.4219 10.2819 23.8424 11.6809 22.811 12.7123C21.7795 13.7438 20.3806 14.3232 18.9219 14.3232ZM16.7379 6.54424H16.1169L14.6009 7.31424V8.10024L15.8029 7.47224V11.1022H16.7459V6.54324H16.7379V6.54424ZM18.5449 7.17324C18.9929 7.17324 19.3069 7.42424 19.3069 7.78624C19.3069 8.17924 18.9369 8.45424 18.4029 8.45424H18.1679V9.12224H18.4509C19.0159 9.12224 19.4009 9.40424 19.4009 9.81324C19.4009 10.2062 19.0239 10.4732 18.4899 10.4732C18.0969 10.4732 17.7039 10.3472 17.2959 10.1032V10.8892C17.7359 11.0782 18.1759 11.1802 18.6079 11.1802C19.6369 11.1802 20.3439 10.6542 20.3439 9.89224C20.3439 9.35724 20.0139 8.92524 19.4639 8.75224C19.9359 8.59524 20.2419 8.17924 20.2419 7.70724C20.2419 6.96924 19.5899 6.46624 18.6469 6.46624C18.2217 6.47086 17.8019 6.56169 17.4129 6.73324V7.50324C17.7909 7.29124 18.1759 7.17324 18.5449 7.17324ZM21.9389 8.88624C22.5129 8.88624 22.9129 9.22424 22.9129 9.66424C22.9129 10.1272 22.5129 10.4492 21.9389 10.4492C21.5929 10.4492 21.2319 10.3392 20.8629 10.1122V10.9212C21.2479 11.0942 21.6409 11.1812 22.0259 11.1812C22.2299 11.1812 22.4179 11.1492 22.5989 11.1012C23.0189 10.4215 23.2419 9.63834 23.2429 8.83924L23.2279 8.50924C22.9356 8.33601 22.6005 8.24867 22.2609 8.25724C22.111 8.2567 21.9612 8.2674 21.8129 8.28924V7.26724H22.9449C22.8465 7.01569 22.7254 6.77368 22.5829 6.54424H20.9959V9.01924C21.3036 8.93655 21.6203 8.89189 21.9389 8.88624Z" fill="#77787D"/>
</g>
<defs>
<clipPath id="clip0_306_3317">
<rect width="24" height="24" fill="white" transform="translate(0.421875 0.323242)"/>
</clipPath>
</defs>
</svg>
