<svg width="49" height="28" viewBox="0 0 49 28" fill="none" xmlns="http://www.w3.org/2000/svg">
<path d="M23.3568 5.52074C23.0817 5.75158 22.8328 5.96023 22.5489 6.19996C22.1821 5.82261 21.8415 5.42751 21.4616 5.0768C19.7847 3.53191 17.8283 2.55969 15.6055 2.12463C9.70144 0.970399 3.74496 4.37538 1.79731 10.1687C0.194652 14.9277 1.12044 19.2428 4.48297 22.9496C6.40878 25.0717 8.84116 26.288 11.6622 26.6831C13.2605 26.9051 14.8282 26.7764 16.4003 26.4079C19.1951 25.7553 21.265 24.0639 22.9507 21.8043C24.2083 20.1173 25.1167 18.2262 26.0337 16.335C26.9464 14.4572 27.8635 12.5838 28.8504 10.7459C29.488 9.55611 30.3395 8.51286 31.4007 7.66051C32.523 6.75932 33.8199 6.29319 35.213 6.11117C37.5056 5.81374 39.5712 6.39973 41.3878 7.8514C41.6848 8.09112 41.9512 8.36636 42.2743 8.6638C41.973 8.92128 41.7022 9.15657 41.414 9.40073C39.9074 7.86472 38.1039 7.07451 35.9816 7.15442C34.2173 7.22101 32.6627 7.86028 31.3963 9.12993C28.8635 11.6648 28.5229 15.5803 30.5535 18.457C32.5754 21.3248 36.0951 22.0041 38.4008 21.1073C38.3441 21.023 38.296 20.9431 38.2436 20.8631C35.8855 17.3294 37.8637 12.495 41.9905 11.6959C43.0472 11.4917 44.0909 11.5361 45.0691 11.9534C47.0866 12.8146 48.3924 14.3151 48.781 16.5481C49.0387 18.0308 48.698 19.4026 47.9906 20.6989C45.8901 24.5434 42.7285 26.9362 38.4664 27.6554C34.0208 28.4056 30.1474 27.1093 26.894 23.9263C26.0992 23.1494 25.4355 22.2704 24.8634 21.316C24.8241 21.2494 24.7804 21.1917 24.7193 21.0984C24.4704 21.4625 24.2433 21.8043 24.0075 22.1417C22.7367 23.9396 21.2039 25.449 19.2563 26.4789C17.7278 27.2869 16.0946 27.6998 14.3784 27.8241C12.6229 27.9528 10.8936 27.7974 9.23854 27.207C4.4655 25.5067 1.39119 22.1683 0.330027 17.1341C-0.678732 12.3529 0.644445 8.16215 4.03318 4.69946C6.11183 2.57301 8.67085 1.32111 11.6142 0.965959C15.9549 0.446555 19.6842 1.7828 22.8022 4.89035C22.99 5.0768 23.1559 5.28545 23.3612 5.5163L23.3568 5.52074ZM28.108 14.4172C28.0556 14.5016 28.0294 14.5326 28.0163 14.5681C27.156 16.3261 26.2957 18.0841 25.4442 19.851C25.3962 19.9531 25.4136 20.1262 25.466 20.2283C27.8547 24.8186 32.9073 27.4423 37.9423 26.6787C41.938 26.075 44.9338 23.9485 46.9556 20.397C47.567 19.3183 47.9426 18.1907 47.781 16.9077C47.436 14.1553 44.8202 12.2197 42.152 12.7702C39.5057 13.3162 37.8331 15.9088 38.4183 18.5813C38.593 19.376 38.9467 20.0818 39.4795 20.6856C39.5319 20.6678 39.5624 20.6634 39.5886 20.6501C39.6585 20.6145 39.7284 20.5746 39.7939 20.5346C41.0559 19.7977 42.0123 18.7633 42.6761 17.4448C42.7503 17.2939 42.9075 17.1518 43.0603 17.0853C43.2612 16.9965 43.4621 17.0853 43.6018 17.2761C43.7634 17.5026 43.6979 17.7245 43.5931 17.9465C42.1084 21.0807 38.8943 22.9186 35.4925 22.5812C33.3833 22.3725 31.6234 21.4625 30.2085 19.8776C28.8504 18.3505 28.1823 16.5348 28.1124 14.4172H28.108Z" fill="#931D72"/>
<path d="M19.3698 8.86799C19.1034 9.09439 18.8588 9.30304 18.5925 9.52945C18.4352 9.37851 18.2955 9.23201 18.147 9.09883C16.1557 7.28314 13.8456 6.68826 11.2953 7.46515C8.66208 8.26867 6.98955 10.111 6.38691 12.8456C5.50916 16.8056 8.06818 20.6722 12.0115 21.4402C13.0334 21.64 14.0465 21.5734 15.064 21.3559C16.8282 20.9785 18.0248 19.8243 19.0204 18.3993C20.1034 16.8544 20.8851 15.1408 21.6799 13.4405C22.5795 11.5138 23.4572 9.57384 24.5882 7.76703C25.9158 5.64501 27.5228 3.79824 29.6932 2.52415C31.3526 1.54749 33.1518 1.04584 35.0601 0.894903C37.5842 0.699571 39.9816 1.13907 42.2437 2.28886C43.6935 3.02579 44.9556 4.01577 46.056 5.22327C46.0953 5.26767 46.1259 5.3165 46.1827 5.39197C45.925 5.61394 45.6761 5.82703 45.4184 6.049C45.0516 5.69385 44.7023 5.32982 44.3267 5.00131C42.3965 3.28772 40.1607 2.25779 37.6017 1.99586C33.7544 1.60076 30.4312 2.78607 27.6582 5.50739C27.0948 6.06231 26.6145 6.7149 26.1429 7.3586C24.6712 9.36963 23.6756 11.6515 22.6188 13.9022C21.7934 15.6602 20.9899 17.4226 19.872 19.0164C18.9025 20.397 17.754 21.5823 16.1382 22.155C12.505 23.4424 8.39569 22.115 6.33451 18.5991C3.44797 13.6847 6.18167 7.38524 11.7102 6.25764C14.326 5.72492 16.6885 6.38195 18.7147 8.17989C18.8763 8.32195 19.0291 8.47732 19.182 8.62826C19.2431 8.69041 19.2955 8.76144 19.3785 8.86799H19.3698Z" fill="#931D72"/>
</svg>
