<svg width="146" height="32" viewBox="0 0 146 32" fill="none" xmlns="http://www.w3.org/2000/svg">
<path d="M27.2197 6.098C26.9055 6.36162 26.6213 6.59989 26.2971 6.87365C25.8782 6.44274 25.4892 5.99154 25.0554 5.59104C23.1404 3.82681 20.9063 2.71657 18.3679 2.21974C11.6256 0.901643 4.82351 4.79004 2.59935 11.4059C0.769162 16.8405 1.82639 21.7682 5.6663 26.0013C7.86552 28.4246 10.6432 29.8137 13.8648 30.2649C15.69 30.5184 17.4803 30.3713 19.2755 29.9506C22.4672 29.2053 24.831 27.2738 26.7559 24.6934C28.1921 22.7669 29.2294 20.6072 30.2766 18.4476C31.3189 16.3031 32.3662 14.1638 33.4932 12.0649C34.2213 10.7063 35.1937 9.51492 36.4056 8.54156C37.6872 7.51242 39.1683 6.98011 40.7591 6.77226C43.3772 6.4326 45.736 7.10179 47.8106 8.75955C48.1497 9.03331 48.4539 9.34763 48.8229 9.68729C48.4788 9.98133 48.1696 10.25 47.8405 10.5288C46.12 8.77476 44.0604 7.87237 41.6368 7.96362C39.6221 8.03966 37.8468 8.76969 36.4006 10.2196C33.5082 13.1144 33.1192 17.5858 35.4381 20.8709C37.747 24.1458 41.7665 24.9215 44.3996 23.8974C44.3347 23.8011 44.2799 23.7099 44.22 23.6186C41.5271 19.5832 43.7862 14.0624 48.4988 13.1498C49.7056 12.9166 50.8975 12.9673 52.0145 13.4439C54.3185 14.4274 55.8096 16.1409 56.2534 18.6909C56.5476 20.3842 56.1587 21.9507 55.3508 23.431C52.9521 27.8213 49.3416 30.5538 44.4744 31.3751C39.3977 32.2319 34.9743 30.7516 31.2591 27.1166C30.3515 26.2295 29.5934 25.2257 28.9402 24.1357C28.8953 24.0597 28.8454 23.9938 28.7756 23.8873C28.4913 24.303 28.232 24.6934 27.9627 25.0787C26.5115 27.1318 24.7611 28.8555 22.537 30.0317C20.7916 30.9543 18.9265 31.4258 16.9666 31.5678C14.9619 31.7148 12.9871 31.5373 11.097 30.8631C5.64635 28.9214 2.13557 25.1091 0.923756 19.3601C-0.228218 13.9001 1.28281 9.11442 5.15265 5.16012C7.52641 2.73177 10.4487 1.30214 13.8099 0.896573C18.7669 0.303427 23.0257 1.82938 26.5863 5.37812C26.8008 5.59104 26.9903 5.82931 27.2247 6.09293L27.2197 6.098ZM32.6454 16.2575C32.5856 16.3538 32.5557 16.3893 32.5407 16.4299C31.5583 18.4375 30.5759 20.445 29.6034 22.4627C29.5486 22.5793 29.5685 22.777 29.6284 22.8936C32.3562 28.1356 38.126 31.1318 43.8759 30.2598C48.4389 29.5703 51.86 27.142 54.1689 23.0863C54.8671 21.8544 55.2959 20.5667 55.1114 19.1016C54.7174 15.9584 51.7303 13.7481 48.6833 14.3767C45.6612 15.0003 43.7513 17.9609 44.4195 21.0128C44.619 21.9203 45.0229 22.7263 45.6313 23.4158C45.6912 23.3955 45.7261 23.3905 45.756 23.3753C45.8358 23.3347 45.9156 23.2891 45.9904 23.2434C47.4316 22.4019 48.5237 21.2207 49.2817 19.715C49.3665 19.5426 49.546 19.3804 49.7206 19.3044C49.95 19.203 50.1794 19.3044 50.3389 19.5223C50.5235 19.7809 50.4487 20.0344 50.329 20.2879C48.6334 23.867 44.9631 25.9658 41.0783 25.5805C38.6696 25.3423 36.6599 24.303 35.0441 22.4931C33.4932 20.7492 32.7302 18.6757 32.6504 16.2575H32.6454Z" fill="#931D72"/>
<path d="M22.668 9.92085C22.3638 10.1794 22.0846 10.4177 21.7804 10.6762C21.6008 10.5039 21.4413 10.3366 21.2717 10.1845C18.9977 8.111 16.3596 7.43167 13.4473 8.31885C10.4402 9.23645 8.53018 11.3403 7.84198 14.4632C6.83962 18.9853 9.76194 23.401 14.2651 24.278C15.432 24.5061 16.589 24.4301 17.751 24.1817C19.7657 23.7508 21.1321 22.4327 22.2691 20.8053C23.5058 19.0411 24.3985 17.0842 25.3061 15.1426C26.3334 12.9423 27.3358 10.7269 28.6274 8.66358C30.1434 6.24031 31.9786 4.13135 34.4571 2.67636C36.3521 1.56105 38.4067 0.988182 40.586 0.815815C43.4684 0.592752 46.2062 1.09464 48.7894 2.40768C50.4451 3.24923 51.8863 4.37976 53.143 5.75869C53.1879 5.80939 53.2228 5.86515 53.2876 5.95134C52.9934 6.20482 52.7091 6.44816 52.4149 6.70164C51.996 6.29607 51.597 5.88036 51.1682 5.50521C48.964 3.54834 46.4107 2.37219 43.4883 2.07308C39.0949 1.62188 35.2999 2.97547 32.1332 6.08315C31.4899 6.71685 30.9413 7.46208 30.4027 8.19718C28.7221 10.4937 27.5851 13.0995 26.3783 15.6698C25.4358 17.6774 24.5182 19.69 23.2415 21.51C22.1344 23.0866 20.8229 24.4402 18.9777 25.0942C14.8286 26.5644 10.136 25.0486 7.78214 21.0335C4.4858 15.4214 7.6076 8.2276 13.921 6.93991C16.9082 6.33156 19.6061 7.08186 21.92 9.13506C22.1045 9.29729 22.2791 9.47472 22.4536 9.64709C22.5234 9.71807 22.5833 9.79918 22.678 9.92085H22.668Z" fill="#931D72"/>
<path d="M66.2256 7.93954C66.2256 4.35946 68.8464 1.82428 72.1867 1.82428C74.7732 1.82428 76.8288 3.12613 77.7195 5.43862H75.8524C75.2015 3.99974 73.9339 3.19465 72.1867 3.19465C69.6858 3.19465 67.8186 5.01038 67.8186 7.93954C67.8186 10.8516 69.6858 12.6673 72.1867 12.6673C73.9339 12.6673 75.2015 11.8622 75.8524 10.4405H77.7195C76.8288 12.7358 74.7732 14.0205 72.1867 14.0205C68.8464 14.0205 66.2256 11.5196 66.2256 7.93954Z" fill="#931D72"/>
<path d="M84.1339 14.0719C81.4788 14.0719 79.4575 12.1877 79.4575 9.20713C79.4575 6.24371 81.5473 4.37659 84.2024 4.37659C86.8746 4.37659 88.9473 6.24371 88.9473 9.20713C88.9473 12.1877 86.8061 14.0719 84.1339 14.0719ZM84.1339 12.7016C85.7612 12.7016 87.3542 11.5881 87.3542 9.20713C87.3542 6.84325 85.7955 5.72982 84.1853 5.72982C82.5408 5.72982 81.0506 6.84325 81.0506 9.20713C81.0506 11.5881 82.5066 12.7016 84.1339 12.7016Z" fill="#931D72"/>
<path d="M90.9968 13.9178V4.53075H92.5556V5.88399C93.1723 4.89047 94.2857 4.35946 95.519 4.35946C97.0607 4.35946 98.3454 5.04464 98.9621 6.44927C99.5102 5.09603 100.846 4.35946 102.285 4.35946C104.426 4.35946 106.088 5.69556 106.088 8.38491V13.9178H104.546V8.60759C104.546 6.68908 103.519 5.71269 101.977 5.71269C100.401 5.71269 99.3218 6.72334 99.3218 8.74463V13.9178H97.7801V8.60759C97.7801 6.68908 96.7524 5.71269 95.2107 5.71269C93.6348 5.71269 92.5556 6.72334 92.5556 8.74463V13.9178H90.9968Z" fill="#931D72"/>
<path d="M108.645 13.9178V4.53075H110.204V5.88399C110.82 4.89047 111.934 4.35946 113.167 4.35946C114.709 4.35946 115.994 5.04464 116.61 6.44927C117.158 5.09603 118.494 4.35946 119.933 4.35946C122.075 4.35946 123.736 5.69556 123.736 8.38491V13.9178H122.194V8.60759C122.194 6.68908 121.167 5.71269 119.625 5.71269C118.049 5.71269 116.97 6.72334 116.97 8.74463V13.9178H115.428V8.60759C115.428 6.68908 114.401 5.71269 112.859 5.71269C111.283 5.71269 110.204 6.72334 110.204 8.74463V13.9178H108.645Z" fill="#931D72"/>
<path d="M130.387 14.0719C127.732 14.0719 125.711 12.1877 125.711 9.20713C125.711 6.24371 127.801 4.37659 130.456 4.37659C133.128 4.37659 135.2 6.24371 135.2 9.20713C135.2 12.1877 133.059 14.0719 130.387 14.0719ZM130.387 12.7016C132.014 12.7016 133.607 11.5881 133.607 9.20713C133.607 6.84325 132.049 5.72982 130.438 5.72982C128.794 5.72982 127.304 6.84325 127.304 9.20713C127.304 11.5881 128.76 12.7016 130.387 12.7016Z" fill="#931D72"/>
<path d="M137.25 13.9178V4.53075H138.809V5.86686C139.425 4.89047 140.556 4.35946 141.824 4.35946C143.999 4.35946 145.661 5.69556 145.661 8.38491V13.9178H144.119V8.60759C144.119 6.68908 143.074 5.71269 141.498 5.71269C139.905 5.71269 138.809 6.70621 138.809 8.7275V13.9178H137.25Z" fill="#931D72"/>
<path d="M77.7195 21.4262H75.8524C75.2015 20.0387 73.8996 19.2336 72.2209 19.2336C69.7029 19.2336 67.8186 21.0494 67.8186 23.9271C67.8186 26.7878 69.7029 28.6035 72.2209 28.6035C74.5677 28.6035 76.1779 27.0961 76.4177 24.7322H71.6557V23.4646H78.0793V24.6637C77.8052 27.6271 75.4584 30.0081 72.2209 30.0081C68.8635 30.0081 66.2256 27.5072 66.2256 23.9271C66.2256 20.3471 68.8635 17.829 72.2209 17.829C74.739 17.829 76.8288 19.1309 77.7195 21.4262Z" fill="#931D72"/>
<path d="M80.1403 29.9054V20.5184H81.6991V22.0429C82.2301 20.998 83.2407 20.3471 84.731 20.3471V21.9572H84.3199C82.8296 21.9572 81.6991 22.6253 81.6991 24.8007V29.9054H80.1403Z" fill="#931D72"/>
<path d="M90.6244 30.0595C87.9693 30.0595 85.948 28.1753 85.948 25.1947C85.948 22.2313 88.0378 20.3642 90.6929 20.3642C93.3651 20.3642 95.4378 22.2313 95.4378 25.1947C95.4378 28.1753 93.2966 30.0595 90.6244 30.0595ZM90.6244 28.6892C92.2517 28.6892 93.8447 27.5757 93.8447 25.1947C93.8447 22.8308 92.286 21.7174 90.6758 21.7174C89.0313 21.7174 87.5411 22.8308 87.5411 25.1947C87.5411 27.5757 88.9971 28.6892 90.6244 28.6892Z" fill="#931D72"/>
<path d="M98.9433 20.5184V25.8114C98.9433 27.7128 99.9882 28.6892 101.564 28.6892C103.174 28.6892 104.254 27.6956 104.254 25.6744V20.5184H105.812V29.9054H104.254V28.5179C103.654 29.4943 102.506 30.0424 101.256 30.0424C99.0975 30.0424 97.4017 28.7063 97.4017 26.0169V20.5184H98.9433Z" fill="#931D72"/>
<path d="M108.444 29.9054V20.5184H110.003V21.8545C110.62 20.8781 111.75 20.3471 113.018 20.3471C115.193 20.3471 116.855 21.6832 116.855 24.3725V29.9054H115.313V24.5952C115.313 22.6767 114.268 21.7003 112.692 21.7003C111.099 21.7003 110.003 22.6938 110.003 24.7151V29.9054H108.444Z" fill="#931D72"/>
<path d="M118.819 25.1776C118.819 22.2484 120.754 20.3642 123.29 20.3642C124.763 20.3642 126.116 21.1179 126.767 22.1971V17.2295H128.343V29.9054H126.767V28.141C126.202 29.1859 124.985 30.0595 123.272 30.0595C120.754 30.0595 118.819 28.0896 118.819 25.1776ZM126.767 25.1947C126.767 23.0193 125.294 21.7174 123.581 21.7174C121.868 21.7174 120.412 22.9679 120.412 25.1776C120.412 27.3873 121.868 28.6892 123.581 28.6892C125.294 28.6892 126.767 27.4044 126.767 25.1947Z" fill="#931D72"/>
</svg>
