<svg width="21" height="21" viewBox="0 0 21 21" fill="none" xmlns="http://www.w3.org/2000/svg">
<path d="M16.9337 10.5305C16.9337 9.39118 17.8583 8.46655 18.9976 8.46655V7.64099C18.9976 4.33875 18.172 3.51318 14.8698 3.51318H6.61414C3.31189 3.51318 2.48633 4.33875 2.48633 7.64099V8.05377C3.6256 8.05377 4.55023 8.9784 4.55023 10.1177C4.55023 11.257 3.6256 12.1816 2.48633 12.1816V12.5944C2.48633 15.8966 3.31189 16.7222 6.61414 16.7222H14.8698C18.172 16.7222 18.9976 15.8966 18.9976 12.5944C17.8583 12.5944 16.9337 11.6697 16.9337 10.5305Z" stroke="#931D72" strokeWidth="1.2" strokeLinecap="round" strokeLinejoin="round"/>
<path d="M9.09082 3.51318L9.09082 16.7222" stroke="#931D72" strokeWidth="1.2" strokeLinecap="round" strokeLinejoin="round" strokeDasharray="3 3"/>
</svg>
