<svg width="24" height="25" viewBox="0 0 24 25" fill="none" xmlns="http://www.w3.org/2000/svg">
<path d="M12.002 12.6714C14.7634 12.6714 17.002 10.4328 17.002 7.67139C17.002 4.90996 14.7634 2.67139 12.002 2.67139C9.24053 2.67139 7.00195 4.90996 7.00195 7.67139C7.00195 10.4328 9.24053 12.6714 12.002 12.6714Z" stroke="#931D72" strokeWidth="1.8" strokeLinecap="round" strokeLinejoin="round"/>
<path d="M3.41211 22.6714C3.41211 18.8014 7.26211 15.6714 12.0021 15.6714C12.9621 15.6714 13.8921 15.8014 14.7621 16.0414" stroke="#931D72" strokeWidth="1.8" strokeLinecap="round" strokeLinejoin="round"/>
<path d="M22.002 18.6714C22.002 18.9914 21.962 19.3014 21.882 19.6014C21.792 20.0014 21.632 20.3914 21.422 20.7314C20.732 21.8914 19.462 22.6714 18.002 22.6714C16.972 22.6714 16.0419 22.2814 15.3419 21.6414C15.0419 21.3814 14.7819 21.0714 14.5819 20.7314C14.2119 20.1314 14.002 19.4214 14.002 18.6714C14.002 17.5914 14.432 16.6014 15.132 15.8814C15.862 15.1314 16.882 14.6714 18.002 14.6714C19.182 14.6714 20.252 15.1814 20.972 16.0014C21.612 16.7114 22.002 17.6514 22.002 18.6714Z" stroke="#931D72" strokeWidth="1.8" strokeMiterlimit="10" strokeLinecap="round" strokeLinejoin="round"/>
<path d="M19.4917 18.6514H16.5117" stroke="#931D72" strokeWidth="1.2" strokeMiterlimit="10" strokeLinecap="round" strokeLinejoin="round"/>
<path d="M18.002 17.1914V20.1814" stroke="#931D72" strokeWidth="1.2" strokeMiterlimit="10" strokeLinecap="round" strokeLinejoin="round"/>
</svg>
